<svg xmlns="http://www.w3.org/2000/svg" xmlns:xlink="http://www.w3.org/1999/xlink" width="1280" height="516" viewBox="0 0 1280 516">
  <defs>
    <linearGradient id="headerGrad" x1="0%" y1="0%" x2="100%" y2="100%">
      <stop offset="0%" style="stop-color:#f6f8fa;stop-opacity:1" />
      <stop offset="100%" style="stop-color:#ffffff;stop-opacity:1" />
    </linearGradient>
  </defs>
  <style>
    .bg { fill: #ffffff; }
    .header-bg { fill: url(#headerGrad); }
    .table-header-bg { fill: #f6f8fa; }
    .table-header { font: 600 12px 'Inter', 'SF Pro Display', -apple-system, BlinkMacSystemFont, 'Segoe UI', Roboto, Helvetica, Arial, sans-serif; fill: #57606a; text-transform: uppercase; letter-spacing: 0.5px; }
    .row { font: 14px 'Inter', 'SF Pro Display', -apple-system, BlinkMacSystemFont, 'Segoe UI', Roboto, Helvetica, Arial, sans-serif; fill: #24292f; }
    .rank { font-weight: 700; fill: #57606a; }
    .rank-1 { fill: #d4a000; }
    .rank-2 { fill: #8a8a8a; }
    .rank-3 { fill: #a0522d; }
    .provider { font-weight: 600; fill: #0969da; }
    .total { font-weight: 700; font-size: 15px; }
    .fast { fill: #1a7f37; }
    .medium { fill: #9a6700; }
    .slow { fill: #cf222e; }
    .status { fill: #57606a; }
    .divider { stroke: #d0d7de; stroke-width: 1; }
    .timestamp { font: 11px 'Inter', 'SF Pro Display', -apple-system, BlinkMacSystemFont, 'Segoe UI', Roboto, Helvetica, Arial, sans-serif; fill: #57606a; }
    .title { font: bold 28px 'Inter', 'SF Pro Display', -apple-system, BlinkMacSystemFont, 'Segoe UI', Roboto, Helvetica, Arial, sans-serif; fill: #24292f; }
    .subtitle { font: 14px 'Inter', 'SF Pro Display', -apple-system, BlinkMacSystemFont, 'Segoe UI', Roboto, Helvetica, Arial, sans-serif; fill: #57606a; }
  </style>

  <!-- Background -->
  <rect class="bg" width="1280" height="516"/>

  <!-- Logo -->
  <g transform="translate(24, 24)">
    <rect width="60" height="60" fill="#000000"/>
    <g transform="scale(0.035) translate(0, 0)">
      <path fill="#ffffff" d="M1036.26,1002.28h237.87l-.93,19.09c-8.38,110.32-49.81,198.3-123.82,262.07-73.09,63.31-170.84,95.43-290.48,95.43-130.81,0-235.55-44.69-311.43-133.6-74.48-87.98-112.65-209.48-112.65-361.23v-60.51c0-96.83,17.7-183.41,51.68-257.43,34.91-74.95,85.19-133.61,149.89-173.63,64.7-40.04,140.12-60.52,225.3-60.52,117.77,0,214.13,32.12,286.29,95.9,72.62,63.3,114.98,153.61,126.15,267.67l1.86,19.08h-238.34l-.93-15.83c-4.65-59.11-20.95-101.94-47.95-127.08-27-25.6-69.83-38.17-127.08-38.17-61.91,0-107.06,20.95-137.33,65.17-31.65,45.15-47.94,117.77-48.87,215.53v74.48c0,102.41,15.36,177.83,45.62,223.91,28.86,44.22,74.01,65.63,137.79,65.63,58.19,0,101.48-12.57,128.95-38.17,26.99-25.14,43.29-66.1,47.48-121.5l.93-16.3Z"/>
    </g>
  </g>

  <!-- Title -->
  <text class="title" x="100" y="55">Browser Session Benchmarks</text>
  <text class="subtitle" x="100" y="78">Session creation, connection, navigation, and release latency</text>
  <!-- Table header background -->
  <rect class="table-header-bg" y="134" width="1280" height="44"/>

  <!-- Table header text -->
  <text class="table-header" x="40" y="162">#</text>
  <text class="table-header" x="80" y="162">Provider</text>
  <text class="table-header" x="240" y="162">Score</text>
  <text class="table-header" x="340" y="162">Create</text>
  <text class="table-header" x="480" y="162">Connect</text>
  <text class="table-header" x="620" y="162">Navigate</text>
  <text class="table-header" x="760" y="162">Release</text>
  <text class="table-header" x="900" y="162">Total</text>
  <text class="table-header" x="1060" y="162">Status</text>

  <!-- Row 1 -->
  <text class="rank rank-1" x="40" y="208">1</text>
  <text class="row provider" x="80" y="208">Kernel</text>
  <text class="row total" x="240" y="208">98.1</text>
  <text class="row" x="340" y="208">0.01s</text>
  <text class="row" x="480" y="208">0.08s</text>
  <text class="row" x="620" y="208">0.10s</text>
  <text class="row" x="760" y="208">0.02s</text>
  <text class="row total fast" x="900" y="208">0.23s</text>
  <text class="row status" x="1060" y="208">100/100</text>
  <line class="divider" x1="24" y1="222" x2="1256" y2="222"/>

  <!-- Row 2 -->
  <text class="rank rank-2" x="40" y="252">2</text>
  <text class="row provider" x="80" y="252">Browserbase</text>
  <text class="row total" x="240" y="252">95.1</text>
  <text class="row" x="340" y="252">0.21s</text>
  <text class="row" x="480" y="252">0.12s</text>
  <text class="row" x="620" y="252">0.11s</text>
  <text class="row" x="760" y="252">0.11s</text>
  <text class="row total fast" x="900" y="252">0.57s</text>
  <text class="row status" x="1060" y="252">100/100</text>
  <line class="divider" x1="24" y1="266" x2="1256" y2="266"/>

  <!-- Row 3 -->
  <text class="rank rank-3" x="40" y="296">3</text>
  <text class="row provider" x="80" y="296">Hyperbrowser</text>
  <text class="row total" x="240" y="296">94.5</text>
  <text class="row" x="340" y="296">0.26s</text>
  <text class="row" x="480" y="296">0.15s</text>
  <text class="row" x="620" y="296">0.15s</text>
  <text class="row" x="760" y="296">0.09s</text>
  <text class="row total fast" x="900" y="296">0.66s</text>
  <text class="row status" x="1060" y="296">100/100</text>
  <line class="divider" x1="24" y1="310" x2="1256" y2="310"/>

  <!-- Row 4 -->
  <text class="rank" x="40" y="340">4</text>
  <text class="row provider" x="80" y="340">Browseruse</text>
  <text class="row total" x="240" y="340">92.5</text>
  <text class="row" x="340" y="340">0.55s</text>
  <text class="row" x="480" y="340">0.12s</text>
  <text class="row" x="620" y="340">0.06s</text>
  <text class="row" x="760" y="340">0.05s</text>
  <text class="row total fast" x="900" y="340">0.80s</text>
  <text class="row status" x="1060" y="340">100/100</text>
  <line class="divider" x1="24" y1="354" x2="1256" y2="354"/>

  <!-- Row 5 -->
  <text class="rank" x="40" y="384">5</text>
  <text class="row provider" x="80" y="384">Notte</text>
  <text class="row total" x="240" y="384">91.9</text>
  <text class="row" x="340" y="384">0.16s</text>
  <text class="row" x="480" y="384">0.48s</text>
  <text class="row" x="620" y="384">0.22s</text>
  <text class="row" x="760" y="384">0.09s</text>
  <text class="row total fast" x="900" y="384">1.02s</text>
  <text class="row status" x="1060" y="384">100/100</text>
  <line class="divider" x1="24" y1="398" x2="1256" y2="398"/>

  <!-- Row 6 -->
  <text class="rank" x="40" y="428">6</text>
  <text class="row provider" x="80" y="428">Steel</text>
  <text class="row total" x="240" y="428">68.2</text>
  <text class="row" x="340" y="428">0.29s</text>
  <text class="row" x="480" y="428">0.68s</text>
  <text class="row" x="620" y="428">0.11s</text>
  <text class="row" x="760" y="428">0.16s</text>
  <text class="row total fast" x="900" y="428">2.25s</text>
  <text class="row status" x="1060" y="428">100/100</text>

  <!-- Timestamp -->
  <text class="timestamp" x="1256" y="488" text-anchor="end">Last updated: Jul 12, 2026, 12:55 AM UTC</text>

  <!-- Footnote -->
  <text class="timestamp" x="24" y="502">Measures full session lifecycle: create, connect via CDP, navigate to example.com, release. Lower total time is better.</text>

</svg>